HIERARCHY
ROOT Hips
{
	OFFSET 0.000000 0.000000 0.000000
	CHANNELS 6 Xposition Yposition Zposition Zrotation Yrotation Xrotation 
	JOINT LHipJoint
	{
		OFFSET 0.000000 0.000000 0.000000
		CHANNELS 3 Zrotation Yrotation Xrotation
		JOINT LeftUpLeg
		{
			OFFSET 1.363060 -1.794630 0.839290
			CHANNELS 3 Zrotation Yrotation Xrotation
			JOINT LeftLeg
			{
				OFFSET 2.448110 -6.726130 0.000000
				CHANNELS 3 Zrotation Yrotation Xrotation
				JOINT LeftFoot
				{
					OFFSET 2.562200 -7.039590 0.000000
					CHANNELS 3 Zrotation Yrotation Xrotation
					JOINT LeftToeBase
					{
						OFFSET 0.157640 -0.433110 2.322550
						CHANNELS 3 Zrotation Yrotation Xrotation
						End Site
						{
							OFFSET 0.000000 0.000000 0.000000
						}
					}
				}
			}
		}
	}
	JOINT RHipJoint
	{
		OFFSET 0.000000 0.000000 0.000000
		CHANNELS 3 Zrotation Yrotation Xrotation
		JOINT RightUpLeg
		{
			OFFSET -1.305520 -1.794630 0.839290
			CHANNELS 3 Zrotation Yrotation Xrotation
			JOINT RightLeg
			{
				OFFSET -2.542530 -6.985550 0.000000
				CHANNELS 3 Zrotation Yrotation Xrotation
				JOINT RightFoot
				{
					OFFSET -2.568260 -7.056230 0.000000
					CHANNELS 3 Zrotation Yrotation Xrotation
					JOINT RightToeBase
					{
						OFFSET -0.164730 -0.452590 2.363150
						CHANNELS 3 Zrotation Yrotation Xrotation
						End Site
						{
							OFFSET 0.000000 0.000000 0.000000
						}
					}
				}
			}
		}
	}
	JOINT LowerBack
	{
		OFFSET 0.000000 0.000000 0.000000
		CHANNELS 3 Zrotation Yrotation Xrotation
		JOINT Spine
		{
			OFFSET 0.028270 2.035590 -0.193380
			CHANNELS 3 Zrotation Yrotation Xrotation
			JOINT Spine1
			{
				OFFSET 0.056720 2.048850 -0.042750
				CHANNELS 3 Zrotation Yrotation Xrotation
				JOINT Neck
				{
					OFFSET 0.000000 0.000000 0.000000
					CHANNELS 3 Zrotation Yrotation Xrotation
					JOINT Neck1
					{
						OFFSET -0.054170 1.746240 0.172020
						CHANNELS 3 Zrotation Yrotation Xrotation
						JOINT Head
						{
							OFFSET 0.104070 1.761360 -0.123970
							CHANNELS 3 Zrotation Yrotation Xrotation
							End Site
							{
								OFFSET 0.000000 0.000000 0.000000
							}
						}
					}
				}
				JOINT LeftShoulder
				{
					OFFSET 0.000000 0.000000 0.000000
					CHANNELS 3 Zrotation Yrotation Xrotation
					JOINT LeftArm
					{
						OFFSET 3.362410 1.200890 -0.311210
						CHANNELS 3 Zrotation Yrotation Xrotation
						JOINT LeftForeArm
						{
							OFFSET 4.983000 -0.000000 -0.000000
							CHANNELS 3 Zrotation Yrotation Xrotation
							JOINT LeftHand
							{
								OFFSET 3.483560 -0.000000 -0.000000
								CHANNELS 3 Zrotation Yrotation Xrotation
								JOINT LeftFingerBase
								{
									OFFSET 0.000000 0.000000 0.000000
									CHANNELS 3 Zrotation Yrotation Xrotation
									JOINT LeftHandIndex1
									{
										OFFSET 0.715260 -0.000000 -0.000000
										CHANNELS 3 Zrotation Yrotation Xrotation
										End Site
										{
											OFFSET 0.000000 0.000000 0.000000
										}
									}
								}
								JOINT LThumb
								{
									OFFSET 0.000000 0.000000 0.000000
									CHANNELS 3 Zrotation Yrotation Xrotation
									End Site
									{
										OFFSET 0.000000 0.000000 0.000000
									}
								}
							}
						}
					}
				}
				JOINT RightShoulder
				{
					OFFSET 0.000000 0.000000 0.000000
					CHANNELS 3 Zrotation Yrotation Xrotation
					JOINT RightArm
					{
						OFFSET -3.136600 1.374050 -0.404650
						CHANNELS 3 Zrotation Yrotation Xrotation
						JOINT RightForeArm
						{
							OFFSET -5.241900 -0.000000 -0.000000
							CHANNELS 3 Zrotation Yrotation Xrotation
							JOINT RightHand
							{
								OFFSET -3.444170 -0.000000 -0.000000
								CHANNELS 3 Zrotation Yrotation Xrotation
								JOINT RightFingerBase
								{
									OFFSET 0.000000 0.000000 0.000000
									CHANNELS 3 Zrotation Yrotation Xrotation
									JOINT RightHandIndex1
									{
										OFFSET -0.622530 -0.000000 -0.000000
										CHANNELS 3 Zrotation Yrotation Xrotation
										End Site
										{
											OFFSET 0.000000 0.000000 0.000000
										}
									}
								}
								JOINT RThumb
								{
									OFFSET 0.000000 0.000000 0.000000
									CHANNELS 3 Zrotation Yrotation Xrotation
									End Site
									{
										OFFSET 0.000000 0.000000 0.000000
									}
								}
							}
						}
					}
				}
			}
		}
	}
}
MOTION
Frames: 12
Frame Time: 0.008333
-15.747488 17.896555 2.662699 0.844732 83.035146 5.913024 -2.397967 1.826476 2.114308 -17.395810 -5.183734 -12.286767 0.166840 7.191177 23.694446 2.058690 -8.046611 -1.149914 0.068200 -1.684800 -4.635300 1.171107 -1.536881 0.373453 12.857026 6.361564 -29.616878 -3.744512 -13.104832 39.319767 1.336021 -8.043044 -8.576213 -0.145400 -2.457000 6.770500 -0.904977 -0.107517 4.082663 1.505086 -0.576517 -0.818036 4.137922 0.141877 -1.087376 -6.870373 2.506525 -10.191847 -0.853885 7.223652 30.358731 2.050800 1.883700 15.676900 -10.973959 -1.422682 -1.473257 -73.615746 -3.824198 17.541758 10.305998 -20.631894 -2.245385 -0.454311 -1.795978 11.610713 14.381062 25.400842 6.754700 -7.125000 0.000000 0.000000 -17.396700 57.179900 -5.299400 9.545935 1.453956 -1.798083 74.849997 -4.920137 7.707457 -17.166138 24.672114 -4.801746 0.581269 -0.744081 24.394422 -21.171694 4.094838 -1.832100 7.125000 0.000000 0.000000 3.488400 -25.085400 1.683300 
-15.680049 17.871581 2.642983 11.187683 82.940184 15.575071 -2.271718 1.976104 2.205034 -19.269401 -4.798598 -10.934721 0.024584 6.809375 22.752263 1.918774 -7.618522 -1.245162 0.099500 -2.034000 -5.599500 1.255941 -1.464078 0.329209 11.502696 6.416581 -29.579666 -3.838499 -13.250487 39.684273 1.054321 -6.943248 -8.741297 -0.597400 -4.948000 13.760200 -2.210911 0.095169 4.494044 1.126031 -0.391617 -0.650839 4.313662 0.223343 -1.086191 -6.799292 2.414485 -10.067513 -0.791132 7.056900 30.373021 2.039700 1.843600 15.657900 -11.007094 -1.424416 -1.463110 -73.435362 -3.870394 17.633233 10.127342 -20.364983 -2.172726 -0.461092 -1.801057 11.627008 14.365194 25.505475 6.774400 -7.125000 0.000000 0.000000 -17.476100 57.283300 -5.368600 9.521500 1.458792 -1.792915 75.021769 -4.925951 7.601720 -17.230123 24.738307 -4.830681 0.583338 -0.746027 24.130892 -21.229918 4.193605 -1.879300 7.125000 0.000000 0.000000 3.443600 -24.972000 1.670700 
-15.623023 17.861774 2.626705 13.149744 83.231756 17.459185 -2.247876 2.009741 2.237794 -19.617470 -4.664624 -10.657220 0.004924 6.740567 22.593353 1.935219 -7.763642 -1.267299 0.111300 -2.151100 -5.923400 1.286509 -1.426712 0.285282 11.476538 6.662411 -29.799138 -3.781849 -13.193201 39.421549 1.256362 -7.625491 -8.032611 -0.178100 -2.718400 7.495800 -2.442800 0.125535 4.497531 1.057900 -0.365830 -0.619507 4.338673 0.231683 -1.036301 -6.826009 2.377020 -10.100432 -0.669191 7.026251 30.522378 2.095900 1.840700 15.741300 -11.016917 -1.416588 -1.463160 -73.372202 -3.849288 17.751338 10.000938 -20.176252 -2.117203 -0.478818 -1.809195 11.583280 14.641655 25.716658 6.968100 -7.125000 0.000000 0.000000 -17.311400 57.559000 -5.432100 9.519227 1.464180 -1.789448 75.018795 -4.900518 7.652231 -17.265867 24.784561 -4.850493 0.575383 -0.754894 23.991342 -21.256311 4.428278 -1.981400 7.125000 0.000000 0.000000 3.426200 -24.704800 1.683500 
-15.565998 17.862886 2.611639 11.651188 83.761859 16.054729 -2.279897 2.004949 2.271416 -19.321184 -4.615418 -10.515735 -0.031714 6.655318 22.364354 2.009363 -8.181224 -1.059048 0.103800 -2.077600 -5.720200 1.283073 -1.415250 0.247405 11.959197 6.893990 -30.154722 -3.697776 -13.117635 39.155008 1.076804 -6.963156 -8.336681 -0.768600 -5.598300 15.623200 -2.225936 0.022305 4.396144 1.140054 -0.483710 -0.642771 4.337888 0.166054 -0.996560 -6.924513 2.394005 -10.146302 -0.588378 7.117053 30.706627 2.163200 1.869200 15.840500 -11.018022 -1.410262 -1.466002 -73.490799 -3.757514 17.533006 9.910937 -20.036479 -2.074465 -0.498071 -1.818550 11.617392 14.962299 26.005970 7.204100 -7.125000 0.000000 0.000000 -17.153000 57.921700 -5.531500 9.529081 1.460465 -1.787509 74.855071 -4.840533 7.829950 -17.245041 24.770963 -4.845191 0.561706 -0.767169 24.114181 -21.250442 4.656884 -2.078500 7.125000 0.000000 0.000000 3.434700 -24.443100 1.708500 
-15.511197 17.866728 2.598698 7.753740 84.451786 12.281167 -2.355537 1.974736 2.287855 -18.673774 -4.907514 -10.443289 -0.032318 6.661119 22.377694 2.080342 -8.516698 -0.912860 0.073100 -1.744300 -4.799400 1.252788 -1.431927 0.221915 12.714094 7.099581 -30.457904 -3.559763 -12.974785 38.675619 0.948866 -6.529434 -8.755079 -1.400700 -7.486800 21.165800 -1.743411 -0.083609 4.340396 1.248946 -0.585267 -0.685181 4.203458 0.110824 -1.024840 -6.925146 2.350464 -10.107814 -0.572605 7.080288 30.800818 2.166100 1.856700 15.884000 -11.018170 -1.409925 -1.463757 -73.602742 -3.684548 17.307348 9.823760 -19.896117 -2.029381 -0.530195 -1.830841 11.569627 15.559286 26.394169 7.614800 -7.125000 0.000000 0.000000 -16.757400 58.450200 -5.613500 9.532653 1.455293 -1.787528 74.747148 -4.844324 8.102012 -17.276887 24.818037 -4.861689 0.547647 -0.761791 23.917770 -21.053203 4.818844 -2.122100 7.125000 0.000000 0.000000 3.593900 -24.274200 1.802100 
-15.456902 17.865717 2.574128 7.198793 85.018002 11.766072 -2.380270 1.978486 2.294985 -18.552264 -5.512716 -10.154840 -0.031832 6.662697 22.405228 2.089319 -8.621646 -0.785051 0.029800 -1.115200 -3.065800 1.251089 -1.417564 0.196184 12.972090 7.166027 -30.770587 -3.415398 -12.825344 38.106940 0.986091 -6.624307 -8.462330 -1.541300 -7.837100 22.220400 -1.469093 -0.117941 4.364603 1.229465 -0.612203 -0.700831 3.992607 0.097062 -1.059954 -6.915998 2.243775 -10.130401 -0.602353 6.956285 30.885705 2.137200 1.803700 15.948200 -11.022526 -1.408291 -1.460912 -73.698801 -3.626783 17.267241 9.773725 -19.811479 -2.002146 -0.548855 -1.837646 11.526425 15.922075 26.605940 7.862500 -7.125000 0.000000 0.000000 -16.499900 58.749100 -5.643300 9.525337 1.454191 -1.785533 74.706042 -4.841186 8.229919 -17.337839 24.893516 -4.890987 0.543724 -0.752403 23.655593 -20.924475 4.858604 -2.121600 7.125000 0.000000 0.000000 3.696900 -24.241100 1.856700 
-15.399371 17.862785 2.551075 9.736754 85.362502 14.312979 -2.341815 2.008175 2.304908 -18.854925 -5.839385 -9.874324 -0.026898 6.655413 22.420261 2.091529 -8.683861 -0.881016 0.022300 -0.964300 -2.650500 1.295664 -1.372235 0.164624 12.917922 7.200407 -31.094179 -3.282567 -12.683596 37.518216 1.199676 -7.300716 -7.362458 -1.175400 -6.881400 19.364300 -1.537153 -0.128094 4.360186 1.151139 -0.636555 -0.714081 3.908573 0.087936 -1.067934 -6.832782 2.171243 -10.215890 -0.692087 6.910924 31.123854 2.077400 1.781600 16.110800 -11.026194 -1.404331 -1.462649 -73.803721 -3.479439 17.180970 9.757697 -19.787145 -1.993288 -0.556292 -1.837590 11.446686 16.129125 26.587591 7.968600 -7.125000 0.000000 0.000000 -16.259200 58.781400 -5.570800 9.521926 1.447852 -1.783241 74.619013 -4.823518 8.406317 -17.351880 24.915568 -4.899441 0.542549 -0.755008 23.637827 -20.949839 4.908112 -2.145200 7.125000 0.000000 0.000000 3.677800 -24.183600 1.852000 
-15.338706 17.859853 2.536313 11.740078 85.635982 16.349362 -2.307848 2.035729 2.326466 -19.070986 -5.870553 -9.683818 -0.031309 6.626140 22.363936 2.125028 -8.894637 -0.963647 0.019900 -0.910200 -2.501700 1.337838 -1.325842 0.126095 12.944928 7.307106 -31.414502 -3.152406 -12.539718 36.944489 1.338343 -7.735385 -6.451736 -1.000300 -6.364600 17.846100 -1.679288 -0.133053 4.315612 1.111560 -0.657097 -0.732921 3.927190 0.079989 -1.063458 -6.724168 2.150801 -10.256796 -0.783189 6.935856 31.360078 2.018400 1.794300 16.255700 -11.028530 -1.400380 -1.461798 -74.014432 -3.344426 16.757659 9.702727 -19.695698 -1.966650 -0.574317 -1.836640 11.769822 16.341910 26.716049 8.114600 -7.125000 0.000000 0.000000 -16.112400 58.959100 -5.587900 9.525461 1.438742 -1.781322 74.495408 -4.791723 8.593617 -17.322599 24.888220 -4.889218 0.542429 -0.771664 23.762799 -21.128029 5.046273 -2.226300 7.125000 0.000000 0.000000 3.539200 -24.012700 1.796000 
-15.276423 17.854292 2.521046 13.110146 85.933411 17.751132 -2.285187 2.061757 2.355338 -19.190887 -5.798856 -9.495642 -0.048919 6.570140 22.225781 2.175878 -9.200247 -0.999631 0.014700 -0.783600 -2.153600 1.372350 -1.282578 0.086072 13.025483 7.418491 -31.714523 -3.013397 -12.387178 36.362773 1.375220 -7.834410 -6.024985 -1.121900 -6.728400 18.913100 -1.754559 -0.155551 4.249754 1.124724 -0.692092 -0.721353 3.987494 0.059448 -0.990854 -6.796510 2.148006 -10.293299 -0.803668 6.995852 31.460184 2.028100 1.806400 16.314000 -11.031804 -1.393961 -1.455199 -74.346266 -3.359716 16.060777 9.581734 -19.485303 -1.915535 -0.588216 -1.826720 12.304917 16.335215 26.706232 8.106200 -7.125000 0.000000 0.000000 -16.112400 58.942800 -5.581500 9.534395 1.435910 -1.775550 74.254464 -4.687551 8.831445 -17.306451 24.880596 -4.887610 0.538691 -0.791119 23.795539 -21.301024 5.294691 -2.354100 7.125000 0.000000 0.000000 3.407400 -23.717700 1.752000 
-15.212522 17.847113 2.505576 14.283214 86.276195 18.913704 -2.266787 2.095286 2.386922 -19.273452 -5.842355 -9.199374 -0.069780 6.508416 22.071776 2.204230 -9.376827 -1.046896 0.011900 -0.703800 -1.934100 1.407244 -1.247079 0.050589 13.158610 7.428102 -31.969112 -2.864239 -12.215327 35.711748 1.471927 -8.152736 -5.288802 -1.024800 -6.439700 18.065700 -1.737760 -0.148619 4.210826 1.113061 -0.681684 -0.696346 3.954688 0.061522 -0.929991 -6.823514 2.108397 -10.183543 -0.792020 6.937627 31.414020 2.026600 1.789900 16.257700 -11.038780 -1.386130 -1.448081 -74.562138 -3.359139 15.755391 9.497496 -19.339023 -1.882348 -0.589355 -1.815748 12.534895 16.238612 26.517587 8.004100 -7.125000 0.000000 0.000000 -16.090600 58.728400 -5.490500 9.535814 1.436279 -1.766723 74.079842 -4.614868 8.988764 -17.306317 24.889233 -4.890472 0.527513 -0.793726 23.704546 -21.208092 5.475080 -2.417600 7.125000 0.000000 0.000000 3.484200 -23.519900 1.807500 
-15.146296 17.844990 2.493949 14.559559 86.614697 19.129981 -2.263024 2.126687 2.426891 -19.273681 -5.836555 -8.831863 -0.095796 6.432036 21.878588 2.220710 -9.467994 -1.105468 0.015100 -0.793800 -2.181700 1.432409 -1.228553 0.018705 13.367509 7.438718 -32.167358 -2.711638 -12.034263 35.040807 1.556833 -8.440723 -4.548764 -0.877800 -5.973000 16.706200 -1.683385 -0.115349 4.248466 1.108060 -0.631113 -0.686383 3.908426 0.084702 -0.951470 -6.830844 2.031204 -10.070985 -0.757750 6.816977 31.388398 2.023400 1.753200 16.220300 -11.040702 -1.373674 -1.450312 -74.745449 -3.167276 16.016940 9.506732 -19.354138 -1.880512 -0.594982 -1.821041 12.316424 16.496797 26.588971 8.161400 -7.125000 0.000000 0.000000 -15.854400 58.864000 -5.459100 9.531727 1.433201 -1.762122 73.999485 -4.627683 8.974517 -17.334204 24.929663 -4.906165 0.503368 -0.788488 23.709426 -20.917269 5.670206 -2.458300 7.125000 0.000000 0.000000 3.717600 -23.320300 1.946200 
-15.077339 17.850247 2.483029 15.152552 86.929850 19.751052 -2.252861 2.159245 2.469714 -19.256870 -5.780719 -8.519227 -0.139269 6.320716 21.583178 2.267325 -9.779658 -1.023525 0.017100 -0.844700 -2.321700 1.462330 -1.199538 -0.019753 13.532304 7.515531 -32.419036 -2.559000 -11.853378 34.374165 1.637200 -8.747673 -4.152250 -0.840300 -5.847100 16.341500 -1.665783 -0.112630 4.185122 1.114414 -0.626799 -0.691230 3.901996 0.084764 -0.926202 -6.863832 1.986027 -10.139800 -0.759885 6.794700 31.478399 2.025400 1.738200 16.290700 -11.038368 -1.364418 -1.450379 -74.963097 -3.030779 15.999329 9.454717 -19.266570 -1.859971 -0.588983 -1.815833 12.156664 16.472889 26.379050 8.093400 -7.125000 0.000000 0.000000 -15.740000 58.648400 -5.336700 9.529671 1.426580 -1.764124 73.951087 -4.638701 9.029191 -17.410955 25.021078 -4.943623 0.514807 -0.784522 23.809305 -21.048831 5.501355 -2.405000 7.125000 0.000000 0.000000 3.612800 -23.505100 1.875700 
